<?xml version="1.0" standalone="no"?><!DOCTYPE svg PUBLIC "-//W3C//DTD SVG 1.1//EN" "http://www.w3.org/Graphics/SVG/1.1/DTD/svg11.dtd"><svg t="1567502897758" class="icon" viewBox="0 0 1024 1024" version="1.1" xmlns="http://www.w3.org/2000/svg" p-id="2015" xmlns:xlink="http://www.w3.org/1999/xlink" width="400" height="400"><defs><style type="text/css"></style></defs><path d="M727.1 785.8H296.3l-58.8-55.1V290.1l51.2-49.2H725l56.8 47.7v441.1l-54.7 56.1z m-401.2-75h369.6l11.3-11.6V323.6l-9.1-7.7H318.8l-6.4 6.2v376.1l13.5 12.6z" fill="#1296db" opacity=".6" p-id="2016"></path><path d="M426.6 542.4h-75V355.7h183.5v75H426.6z" fill="#1296db" opacity=".6" p-id="2017"></path><path d="M666.5 666.2h-75V543.5H479.8v-75h186.7zM591.5 355.7h75.1v75.1h-75.1zM351.5 593.9h75.2v75.2h-75.2z" fill="#1296db" p-id="2018"></path><path d="M479.2 593.9h75.2v75.2h-75.2zM230.4 67.2h75v59.7h-75zM353.3 67.2h75v59.7h-75zM476.3 67.2h75v59.7h-75zM591.9 67.2h75v59.7h-75zM707.5 67.2h75v59.7h-75zM230.4 899.8h75v59.7h-75zM353.3 899.8h75v59.7h-75zM476.3 899.8h75v59.7h-75zM591.9 899.8h75v59.7h-75zM707.5 899.8h75v59.7h-75zM896.1 236.4h59.7v75h-59.7zM896.1 359.3h59.7v75h-59.7zM896.1 482.3h59.7v75h-59.7zM896.1 597.9h59.7v75h-59.7zM896.1 713.5h59.7v75h-59.7zM62.3 236.4H122v75H62.3zM62.3 359.3H122v75H62.3zM62.3 482.3H122v75H62.3zM62.3 597.9H122v75H62.3zM62.3 713.5H122v75H62.3z" fill="#1296db" opacity=".6" p-id="2019"></path><path d="M831 906.9H193.9l-77.4-72.5V183.3l66.1-63.4h646.3l73.8 61.9v651.6L831 906.9z m-607.4-75h575.8l28.3-29V216.7l-26.1-21.9H212.8l-21.3 20.4v586.6l32.1 30.1z" fill="#1296db" p-id="2020"></path></svg>